<svg xmlns="http://www.w3.org/2000/svg" width="50" height="72" viewBox="0 0 50 72">
  <path fill="#252525" fill-rule="evenodd" d="M563.992188,31.1074219 C566.92189,31.6608101 568.988926,32.8977769 570.193359,34.8183594 C571.397792,36.7389419 572,39.7662554 572,43.9003906 C572,52.1035566 569.534204,58.8173567 564.602539,64.0419922 C559.670874,69.2666277 553.363971,71.8789062 545.681641,71.8789062 C542.654282,71.8789062 539.716486,71.3336643 536.868164,70.2431641 C534.019843,69.1526638 531.570323,67.6308691 529.519531,65.6777344 C527.17577,63.5292861 525.417975,61.258801 524.246094,58.8662109 C523.074213,56.4736208 522.488281,54.0241011 522.488281,51.5175781 C522.488281,48.718085 523.090489,46.5533931 524.294922,45.0234375 C525.499355,43.4934819 527.403633,42.4518257 530.007812,41.8984375 C529.519529,40.7591089 529.161459,39.798832 528.933594,39.0175781 C528.705728,38.2363242 528.591797,37.6341167 528.591797,37.2109375 C528.591797,35.7460864 529.364901,34.2487056 530.911133,32.71875 C532.457365,31.1887944 533.914056,30.4238281 535.28125,30.4238281 C535.86719,30.4238281 536.485674,30.5296213 537.136719,30.7412109 C537.787764,30.9528005 538.536454,31.3027319 539.382812,31.7910156 C536.87629,24.694626 535.053391,19.2177927 533.914062,15.3603516 C532.774734,11.5029104 532.205078,8.8418042 532.205078,7.37695312 C532.205078,5.35871387 532.725906,3.75553979 533.767578,2.56738281 C534.80925,1.37922583 536.225251,0.78515625 538.015625,0.78515625 C541.075536,0.78515625 544.949195,7.62102539 549.636719,21.2929687 C550.450525,23.6367305 551.069008,25.443353 551.492188,26.7128906 C551.850262,25.703771 552.354814,24.2714937 553.005859,22.4160156 C557.693383,8.87428125 561.729801,2.10351562 565.115234,2.10351562 C566.775399,2.10351562 568.101883,2.66503345 569.094727,3.78808594 C570.08757,4.91113843 570.583984,6.41665723 570.583984,8.3046875 C570.583984,9.73698633 570.038742,12.3574028 568.948242,16.1660156 C567.857742,19.9746284 566.20574,24.9550474 563.992188,31.1074219 Z M560.476562,30.2773438 C562.657563,24.352835 564.358392,19.4619333 565.579102,15.6044922 C566.799811,11.747051 567.410156,9.37891064 567.410156,8.5 C567.410156,7.55598486 567.206708,6.82357031 566.799805,6.30273438 C566.392902,5.78189844 565.831384,5.52148438 565.115234,5.52148438 C564.203771,5.52148438 563.276046,6.27831274 562.332031,7.79199219 C561.388016,9.30567163 560.34636,11.7389155 559.207031,15.0917969 L554.324219,29.203125 L560.476562,30.2773438 Z M548.464844,28.6171875 L543.191406,13.3828125 C541.824212,9.50909521 540.76628,6.97819604 540.017578,5.79003906 C539.268876,4.60188208 538.455083,4.0078125 537.576172,4.0078125 C536.892575,4.0078125 536.339195,4.26822656 535.916016,4.7890625 C535.492836,5.30989844 535.28125,6.00976123 535.28125,6.88867188 C535.28125,8.3860752 535.850906,10.9902158 536.990234,14.7011719 C538.129563,18.4121279 539.83853,23.2786157 542.117188,29.3007812 C542.312501,28.9427065 542.589191,28.6904304 542.947266,28.5439453 C543.30534,28.3974602 543.793617,28.3242188 544.412109,28.3242188 C544.607423,28.3242188 544.998044,28.3404946 545.583984,28.3730469 C546.169925,28.4055991 547.130202,28.4869785 548.464844,28.6171875 Z M553.982422,43.4121094 C552.582675,43.3470049 551.256191,43.200522 550.00293,42.9726562 C548.749668,42.7447905 547.553391,42.4192729 546.414062,41.9960938 C546.934898,43.0377656 547.398761,44.0794219 547.805664,45.1210938 C548.212567,46.1627656 548.546223,47.188146 548.806641,48.1972656 C549.587895,47.2206982 550.409826,46.3336628 551.272461,45.5361328 C552.135095,44.7386028 553.038407,44.0306021 553.982422,43.4121094 Z M529.03125,51.0292969 C529.486981,51.5826851 530.121741,52.396479 530.935547,53.4707031 C533.083995,56.4329575 535.069652,57.9140625 536.892578,57.9140625 C537.511071,57.9140625 538.064451,57.718752 538.552734,57.328125 C539.041018,56.937498 539.285156,56.5306011 539.285156,56.1074219 C539.285156,55.6191382 538.959639,54.8053442 538.308594,53.6660156 C537.657549,52.526687 536.762375,51.2408926 535.623047,49.8085938 C534.320957,48.1484292 533.238611,46.9358762 532.375977,46.1708984 C531.513342,45.4059207 530.821617,45.0234375 530.300781,45.0234375 C529.161453,45.0234375 528.111658,45.633783 527.151367,46.8544922 C526.191076,48.0752014 525.710938,49.5156167 525.710938,51.1757812 C525.710938,52.5104233 526.044593,53.9996663 526.711914,55.6435547 C527.379235,57.2874431 528.34765,58.9394448 529.617188,60.5996094 C531.53777,63.1712368 533.922186,65.1487561 536.770508,66.5322266 C539.618829,67.915697 542.768212,68.6074219 546.21875,68.6074219 C552.566438,68.6074219 557.880512,66.2392815 562.161133,61.5029297 C566.441753,56.7665779 568.582031,50.83402 568.582031,43.7050781 C568.582031,41.5240776 568.419272,39.7906965 568.09375,38.5048828 C567.768228,37.2190691 567.231124,36.2832061 566.482422,35.6972656 C565.14778,34.5904893 562.551777,33.5976606 558.694336,32.71875 C554.836895,31.8398394 550.808615,31.4003906 546.609375,31.4003906 C545.437494,31.4003906 544.607424,31.5957012 544.119141,31.9863281 C543.630857,32.3769551 543.386719,33.0442661 543.386719,33.9882812 C543.386719,36.201834 544.623686,37.8050081 547.097656,38.7978516 C549.571627,39.7906951 553.575493,40.2871094 559.109375,40.2871094 L561.111328,40.2871094 C561.56706,40.2871094 561.933267,40.4580061 562.209961,40.7998047 C562.486655,41.1416033 562.673828,41.6542935 562.771484,42.3378906 C562.218096,42.8587266 561.078785,43.4527961 559.353516,44.1201172 C557.628247,44.7874382 556.3099,45.4466113 555.398438,46.0976562 C553.445303,47.5299551 551.87468,49.2307844 550.686523,51.2001953 C549.498366,53.1696062 548.904297,55.0331943 548.904297,56.7910156 C548.904297,57.8652397 549.156573,59.1591721 549.661133,60.6728516 C550.165693,62.186531 550.417969,63.122394 550.417969,63.4804688 L550.417969,63.8222656 L550.320312,64.2617188 C548.888014,64.164062 547.75684,63.3258542 546.926758,61.7470703 C546.096676,60.1682864 545.681641,58.0605601 545.681641,55.4238281 L545.681641,54.984375 C545.421223,55.2122407 545.168947,55.3749995 544.924805,55.4726562 C544.680663,55.570313 544.412111,55.6191406 544.119141,55.6191406 C543.82617,55.6191406 543.54948,55.5947268 543.289062,55.5458984 C543.028645,55.4970701 542.735679,55.4238286 542.410156,55.3261719 C542.507813,55.6842466 542.581054,56.034178 542.629883,56.3759766 C542.678711,56.7177751 542.703125,56.9863271 542.703125,57.1816406 C542.703125,58.3860737 542.231125,59.419592 541.287109,60.2822266 C540.343094,61.1448611 539.220059,61.5761719 537.917969,61.5761719 C535.867177,61.5761719 533.783865,60.5752053 531.667969,58.5732422 C529.552073,56.5712791 528.494141,54.6100356 528.494141,52.6894531 C528.494141,52.3313784 528.53483,52.0139988 528.616211,51.7373047 C528.697592,51.4606106 528.835937,51.2246104 529.03125,51.0292969 Z M543.679688,52.2011719 C544.233076,52.2011719 544.737628,51.9488958 545.193359,51.4443359 C545.649091,50.9397761 545.876953,50.3945342 545.876953,49.8085938 C545.876953,49.1901011 545.429366,47.7496858 544.53418,45.4873047 C543.638993,43.2249236 542.524095,41.0032661 541.189453,38.8222656 C540.212886,37.1946533 539.252609,35.9658245 538.308594,35.1357422 C537.364579,34.3056599 536.469405,33.890625 535.623047,33.890625 C534.93945,33.890625 534.182621,34.3219358 533.352539,35.1845703 C532.522457,36.0472048 532.107422,36.8528608 532.107422,37.6015625 C532.107422,38.3828164 532.514319,39.5546797 533.328125,41.1171875 C534.141931,42.6796953 535.232415,44.339835 536.599609,46.0976562 C538.031908,48.0182388 539.382806,49.5156196 540.652344,50.5898438 C541.921881,51.6640679 542.930986,52.2011719 543.679688,52.2011719 Z" transform="translate(-522)"/>
</svg>
